<svg xmlns="http://www.w3.org/2000/svg" viewBox="0 0 256 256">
  <rect width="256" height="256" fill="#1a2332"/>
  <path d="M128 40 C 75 40 40 75 40 128 C 40 181 75 216 128 216 C 165 216 197 195 210 165 L 170 165 C 160 178 145 186 128 186 C 92 186 70 164 70 128 C 70 92 92 70 128 70 C 145 70 160 78 170 91 L 210 91 C 197 61 165 40 128 40 Z M 128 110 L 128 146 L 180 146 L 180 110 Z" fill="#c0d0e0"/>
  <path d="M128 40 C 75 40 40 75 40 128 C 40 181 75 216 128 216 C 165 216 197 195 210 165 L 170 165 C 160 178 145 186 128 186 C 92 186 70 164 70 128 C 70 92 92 70 128 70 C 145 70 160 78 170 91 L 210 91 C 197 61 165 40 128 40 Z M 128 110 L 128 146 L 180 146 L 180 110 Z" fill="url(#metalGrad)"/>
  <defs>
    <linearGradient id="metalGrad" x1="0%" y1="0%" x2="100%" y2="100%">
      <stop offset="0%" style="stop-color:#b8c8d8;stop-opacity:1"/>
      <stop offset="50%" style="stop-color:#e8f0f8;stop-opacity:1"/>
      <stop offset="100%" style="stop-color:#a0b0c0;stop-opacity:1"/>
    </linearGradient>
  </defs>
</svg>